# Blender v2.93.0 OBJ File: ''
# www.blender.org
mtllib cuadro2.mtl
o Plane.001_Plane.013
v -0.006483 1.101578 0.775402
v -0.006483 1.094436 0.781885
v -0.000000 1.084337 0.775402
v -0.000000 1.094436 0.766234
v -0.006483 1.099486 0.779986
v -0.001887 1.096806 0.777553
v -0.001899 1.089386 0.779986
v -0.000000 1.091478 0.772717
v -0.001899 1.099486 0.770818
v -0.006482 -1.094436 0.781885
v -0.006482 -1.101578 0.775402
v 0.000001 -1.094436 0.766234
v 0.000001 -1.084337 0.775402
v -0.006482 -1.099486 0.779986
v -0.001886 -1.096806 0.777553
v -0.001898 -1.099486 0.770818
v 0.000001 -1.091478 0.772717
v -0.001898 -1.089387 0.779986
v -0.006483 1.101578 -0.775402
v -0.000001 1.094436 -0.766234
v -0.000001 1.084337 -0.775402
v -0.006483 1.094436 -0.781885
v -0.001899 1.099486 -0.770818
v -0.001887 1.096806 -0.777553
v -0.000001 1.091478 -0.772717
v -0.001899 1.089387 -0.779986
v -0.006483 1.099486 -0.779986
v -0.006483 -1.101578 -0.775402
v -0.006483 -1.094436 -0.781885
v 0.000000 -1.084337 -0.775402
v 0.000000 -1.094436 -0.766234
v -0.006483 -1.099486 -0.779986
v -0.001886 -1.096806 -0.777553
v -0.001899 -1.089386 -0.779986
v 0.000000 -1.091478 -0.772717
v -0.001899 -1.099486 -0.770818
v -0.006483 1.017534 -0.699108
v -0.006483 1.010392 -0.705591
v -0.000001 1.014575 -0.712074
v -0.000001 1.024675 -0.702906
v -0.006483 1.015442 -0.703692
v -0.001887 1.017288 -0.705368
v -0.001899 1.012484 -0.707490
v -0.000001 1.021717 -0.709388
v -0.001899 1.019625 -0.701007
v -0.006483 1.017534 0.699108
v -0.000000 1.024675 0.702906
v -0.000000 1.014575 0.712074
v -0.006483 1.010392 0.705591
v -0.001899 1.019625 0.701007
v -0.001887 1.017288 0.705368
v -0.000000 1.021717 0.709388
v -0.001899 1.012484 0.707490
v -0.006483 1.015442 0.703692
v -0.006482 -1.010392 0.705591
v 0.000001 -1.014575 0.712074
v 0.000001 -1.024675 0.702906
v -0.006482 -1.017534 0.699108
v -0.001898 -1.012484 0.707490
v -0.001886 -1.017288 0.705368
v 0.000001 -1.021717 0.709388
v -0.001898 -1.019625 0.701007
v -0.006482 -1.015442 0.703692
v -0.006483 -1.017534 -0.699108
v 0.000000 -1.024675 -0.702906
v 0.000000 -1.014575 -0.712074
v -0.006483 -1.010392 -0.705591
v -0.001899 -1.019625 -0.701007
v -0.001886 -1.017288 -0.705368
v 0.000000 -1.021717 -0.709388
v -0.001899 -1.012484 -0.707490
v -0.006483 -1.015442 -0.703692
v -0.100799 1.094436 0.781885
v -0.100799 1.101578 0.775402
v -0.100799 1.099486 0.779986
v -0.100799 -1.101578 0.775402
v -0.100799 -1.094436 0.781885
v -0.100799 -1.099486 0.779986
v -0.100800 1.101578 -0.775402
v -0.100800 1.094436 -0.781885
v -0.100800 1.099486 -0.779986
v -0.100799 -1.094436 -0.781885
v -0.100799 -1.101578 -0.775402
v -0.100799 -1.099486 -0.779986
v -0.036526 1.017534 -0.699108
v -0.043009 1.010392 -0.699108
v -0.036526 1.010392 -0.705591
v -0.041110 1.015442 -0.699108
v -0.040269 1.014515 -0.702851
v -0.041110 1.010392 -0.703692
v -0.036526 1.015442 -0.703692
v -0.036526 1.017534 0.699108
v -0.036526 1.010392 0.705591
v -0.043009 1.010392 0.699108
v -0.036526 1.015442 0.703692
v -0.040269 1.014515 0.702851
v -0.041110 1.010392 0.703692
v -0.041110 1.015442 0.699108
v -0.036525 -1.010392 0.705591
v -0.036525 -1.017534 0.699108
v -0.043008 -1.010392 0.699108
v -0.036525 -1.015442 0.703692
v -0.040268 -1.014515 0.702851
v -0.041109 -1.015442 0.699108
v -0.041109 -1.010392 0.703692
v -0.036526 -1.017534 -0.699108
v -0.036526 -1.010392 -0.705591
v -0.043008 -1.010392 -0.699108
v -0.036526 -1.015442 -0.703692
v -0.040268 -1.014515 -0.702851
v -0.041110 -1.010392 -0.703692
v -0.041110 -1.015442 -0.699108
vt 0.257626 0.997122
vt 0.257626 0.860725
vt 0.454440 0.860725
vt 0.454440 0.997122
vt 0.950376 0.980460
vt 0.950376 0.721962
vt 0.958227 0.721959
vt 0.958227 0.980464
vt 0.988277 0.750908
vt 0.871203 0.750908
vt 0.865931 0.742967
vt 0.993548 0.742968
vt 0.835235 0.725285
vt 0.835234 0.974190
vt 0.827384 0.974193
vt 0.827384 0.725281
vt 0.823749 0.726784
vt 0.940195 0.726783
vt 0.940182 0.730692
vt 0.823762 0.730694
vt 0.845102 0.970828
vt 0.962176 0.970828
vt 0.967447 0.978769
vt 0.839831 0.978768
vt 0.965950 0.965140
vt 0.965951 0.734328
vt 0.971226 0.726398
vt 0.971225 0.973071
vt 0.841322 0.734333
vt 0.841321 0.965145
vt 0.836046 0.973075
vt 0.836048 0.726402
vt 0.839088 0.979992
vt 0.968193 0.979997
vt 0.968195 0.991814
vt 0.839085 0.991808
vt 0.820511 0.970577
vt 0.820510 0.731851
vt 0.823011 0.731871
vt 0.823012 0.970557
vt 0.943437 0.731848
vt 0.943438 0.970574
vt 0.940937 0.970554
vt 0.940935 0.731867
vt 0.940199 0.975640
vt 0.823753 0.975642
vt 0.823765 0.971732
vt 0.940186 0.971730
vt 0.968185 0.719481
vt 0.968598 0.719545
vt 0.968394 0.720276
vt 0.967805 0.720081
vt 0.972038 0.725283
vt 0.971639 0.725855
vt 0.971510 0.724968
vt 0.971996 0.724661
vt 0.971021 0.725560
vt 0.967442 0.720705
vt 0.968000 0.721014
vt 0.972038 0.974188
vt 0.971996 0.974810
vt 0.971510 0.974503
vt 0.971640 0.973617
vt 0.967812 0.979395
vt 0.968402 0.979200
vt 0.968607 0.979933
vt 0.968007 0.978460
vt 0.971020 0.973910
vt 0.839080 0.719476
vt 0.839461 0.720078
vt 0.838870 0.720273
vt 0.838666 0.719540
vt 0.839825 0.720704
vt 0.839266 0.721013
vt 0.835633 0.725856
vt 0.835762 0.724969
vt 0.836253 0.725563
vt 0.835277 0.724662
vt 0.838674 0.979928
vt 0.838878 0.979197
vt 0.839467 0.979392
vt 0.835634 0.973618
vt 0.835762 0.974505
vt 0.835276 0.974812
vt 0.836252 0.973913
vt 0.839273 0.978459
vt 0.823346 0.726845
vt 0.823213 0.726304
vt 0.823585 0.726122
vt 0.820087 0.731596
vt 0.820203 0.731015
vt 0.820548 0.731223
vt 0.819660 0.731361
vt 0.819862 0.730527
vt 0.845097 0.728645
vt 0.845248 0.729289
vt 0.844876 0.729463
vt 0.844563 0.728950
vt 0.940358 0.726121
vt 0.940730 0.726303
vt 0.940597 0.726843
vt 0.962171 0.728645
vt 0.962705 0.728949
vt 0.962392 0.729462
vt 0.962020 0.729288
vt 0.965524 0.734555
vt 0.965408 0.733995
vt 0.965749 0.733524
vt 0.943399 0.731218
vt 0.943746 0.731010
vt 0.943862 0.731592
vt 0.965101 0.964668
vt 0.965524 0.964914
vt 0.965408 0.965473
vt 0.965061 0.965273
vt 0.965748 0.965943
vt 0.962025 0.970184
vt 0.962397 0.970009
vt 0.962710 0.970523
vt 0.961862 0.969547
vt 0.962264 0.969488
vt 0.845415 0.969549
vt 0.845252 0.970185
vt 0.844880 0.970011
vt 0.845013 0.969490
vt 0.844568 0.970524
vt 0.841748 0.964918
vt 0.841864 0.965478
vt 0.841523 0.965948
vt 0.842173 0.964672
vt 0.842212 0.965278
vt 0.823777 0.731315
vt 0.823428 0.731348
vt 0.823339 0.730759
vt 0.823799 0.731929
vt 0.823407 0.731894
vt 0.823051 0.731211
vt 0.940605 0.730756
vt 0.940517 0.731345
vt 0.940167 0.731312
vt 0.940538 0.731891
vt 0.940894 0.731206
vt 0.940145 0.731925
vt 0.940896 0.971214
vt 0.940520 0.971076
vt 0.940541 0.970530
vt 0.940171 0.971109
vt 0.940609 0.971665
vt 0.940149 0.970496
vt 0.823343 0.971668
vt 0.823431 0.971080
vt 0.823781 0.971112
vt 0.823410 0.970533
vt 0.823053 0.971218
vt 0.823803 0.970500
vt 0.988126 0.751550
vt 0.871353 0.751552
vt 0.943861 0.970828
vt 0.819659 0.971068
vt 0.820086 0.970833
vt 0.994106 0.743276
vt 0.988811 0.751212
vt 0.841524 0.733530
vt 0.979889 0.974192
vt 0.979889 0.974816
vt 0.968611 0.991814
vt 0.827384 0.974818
vt 0.838670 0.991808
vt 0.827384 0.724656
vt 0.838662 0.707659
vt 0.839077 0.707658
vt 0.950334 0.721316
vt 0.958226 0.721310
vt 0.968602 0.707665
vt 0.968187 0.707664
vt 0.820549 0.971207
vt 0.823351 0.975581
vt 0.943399 0.971202
vt 0.940602 0.975579
vn 1.0000 0.0000 -0.0000
vn 0.0000 0.0000 1.0000
vn 0.0000 0.0000 -1.0000
vn 0.0000 -1.0000 0.0000
vn 0.0000 1.0000 -0.0000
vn 0.6128 0.7284 0.3064
vn 0.5851 0.2656 0.7662
vn 0.9558 0.0967 0.2775
vn 0.9614 0.2534 0.1072
vn 0.5851 -0.2656 0.7662
vn 0.6128 -0.7284 0.3064
vn 0.9614 -0.2534 0.1072
vn 0.9558 -0.0967 0.2775
vn 0.6128 0.7284 -0.3064
vn 0.9614 0.2534 -0.1072
vn 0.9558 0.0967 -0.2775
vn 0.5852 0.2656 -0.7662
vn 0.6128 -0.7284 -0.3064
vn 0.5851 -0.2656 -0.7662
vn 0.9558 -0.0967 -0.2775
vn 0.9614 -0.2534 -0.1072
vn 0.4868 -0.7826 0.3881
vn 0.4632 -0.3353 0.8204
vn 0.9399 -0.1283 0.3163
vn 0.9466 -0.2892 0.1423
vn 0.4868 -0.7826 -0.3881
vn 0.9466 -0.2892 -0.1423
vn 0.9399 -0.1283 -0.3163
vn 0.4632 -0.3353 -0.8204
vn 0.4632 0.3353 -0.8204
vn 0.9399 0.1283 -0.3163
vn 0.9466 0.2892 -0.1423
vn 0.4868 0.7826 -0.3881
vn 0.4868 0.7826 0.3881
vn 0.9466 0.2892 0.1423
vn 0.9399 0.1283 0.3163
vn 0.4633 0.3353 0.8204
vn 0.3503 -0.8687 0.3503
vn 0.8964 -0.2979 0.3281
vn 0.3281 -0.2979 0.8964
vn 0.3503 -0.8687 -0.3503
vn 0.3281 -0.2979 -0.8964
vn 0.8964 -0.2979 -0.3281
vn 0.3281 0.2979 -0.8964
vn 0.3503 0.8687 -0.3503
vn 0.8964 0.2979 -0.3281
vn 0.3503 0.8687 0.3503
vn 0.3281 0.2979 0.8964
vn 0.8964 0.2979 0.3281
vn 0.9360 -0.3520 -0.0000
vn 0.4151 -0.9098 -0.0000
vn 0.9239 0.0000 -0.3827
vn 0.3827 0.0000 -0.9239
vn 0.9360 0.3520 -0.0000
vn 0.4151 0.9098 -0.0000
vn 0.9239 0.0000 0.3827
vn 0.3827 0.0000 0.9239
vn 0.0000 -0.3520 0.9360
vn 0.0000 -0.9098 0.4151
vn 0.0000 -0.3520 -0.9360
vn 0.0000 -0.9098 -0.4151
vn 0.0000 0.3520 -0.9360
vn 0.0000 0.9098 -0.4151
vn 0.0000 0.3520 0.9360
vn 0.0000 0.9098 0.4151
usemtl Material.006
s 1
f 94/1/1 101/2/1 108/3/1 86/4/1
f 10/5/2 2/6/2 73/7/2 77/8/2
f 47/9/1 40/10/1 20/11/1 4/12/1
f 22/13/3 29/14/3 82/15/3 80/16/3
f 37/17/4 46/18/4 92/19/4 85/20/4
f 65/21/1 57/22/1 12/23/1 31/24/1
f 56/25/1 48/26/1 3/27/1 13/28/1
f 39/29/1 66/30/1 30/31/1 21/32/1
f 28/33/4 11/34/4 76/35/4 83/36/4
f 67/37/2 38/38/2 87/39/2 107/40/2
f 49/41/3 55/42/3 99/43/3 93/44/3
f 58/45/5 64/46/5 106/47/5 100/48/5
f 1/49/6 5/50/6 6/51/6 9/52/6
f 2/53/7 7/54/7 6/55/7 5/56/7
f 3/27/8 8/57/8 6/55/8 7/54/8
f 4/58/9 9/52/9 6/51/9 8/59/9
f 10/60/10 14/61/10 15/62/10 18/63/10
f 11/34/11 16/64/11 15/65/11 14/66/11
f 12/23/12 17/67/12 15/65/12 16/64/12
f 13/28/13 18/63/13 15/62/13 17/68/13
f 19/69/14 23/70/14 24/71/14 27/72/14
f 20/73/15 25/74/15 24/71/15 23/70/15
f 21/32/16 26/75/16 24/76/16 25/77/16
f 22/13/17 27/78/17 24/76/17 26/75/17
f 28/33/18 32/79/18 33/80/18 36/81/18
f 29/14/19 34/82/19 33/83/19 32/84/19
f 30/31/20 35/85/20 33/83/20 34/82/20
f 31/24/21 36/81/21 33/80/21 35/86/21
f 37/17/22 41/87/22 42/88/22 45/89/22
f 38/38/23 43/90/23 42/91/23 41/92/23
f 39/93/24 44/94/24 42/91/24 43/90/24
f 40/95/25 45/96/25 42/97/25 44/98/25
f 46/18/26 50/99/26 51/100/26 54/101/26
f 47/102/27 52/103/27 51/104/27 50/105/27
f 48/26/28 53/106/28 51/107/28 52/108/28
f 49/41/29 54/109/29 51/110/29 53/111/29
f 55/112/30 59/113/30 60/114/30 63/115/30
f 56/25/31 61/116/31 60/114/31 59/113/31
f 57/22/32 62/117/32 60/118/32 61/119/32
f 58/120/33 63/121/33 60/118/33 62/117/33
f 64/122/34 68/123/34 69/124/34 72/125/34
f 65/21/35 70/126/35 69/124/35 68/123/35
f 66/30/36 71/127/36 69/128/36 70/129/36
f 67/130/37 72/131/37 69/128/37 71/127/37
f 85/20/38 88/132/38 89/133/38 91/134/38
f 86/135/39 90/136/39 89/133/39 88/132/39
f 87/39/40 91/137/40 89/133/40 90/136/40
f 92/19/41 95/138/41 96/139/41 98/140/41
f 93/44/42 97/141/42 96/139/42 95/142/42
f 94/143/43 98/140/43 96/139/43 97/141/43
f 99/43/44 102/144/44 103/145/44 105/146/44
f 100/48/45 104/147/45 103/145/45 102/148/45
f 101/149/46 105/146/46 103/145/46 104/147/46
f 106/47/47 109/150/47 110/151/47 112/152/47
f 107/40/48 111/153/48 110/151/48 109/154/48
f 108/155/49 112/152/49 110/151/49 111/153/49
f 40/10/50 47/9/50 50/156/50 45/157/50
f 45/89/51 50/99/51 46/18/51 37/17/51
f 48/26/52 56/25/52 59/113/52 53/106/52
f 53/111/53 59/158/53 55/42/53 49/41/53
f 57/22/54 65/21/54 68/123/54 62/117/54
f 62/117/55 68/123/55 64/122/55 58/120/55
f 66/159/56 39/93/56 43/90/56 71/160/56
f 71/160/57 43/90/57 38/38/57 67/37/57
f 19/69/55 1/49/55 9/52/55 23/70/55
f 23/70/54 9/52/54 4/58/54 20/73/54
f 2/53/57 10/60/57 18/63/57 7/54/57
f 7/54/56 18/63/56 13/28/56 3/27/56
f 11/34/51 28/33/51 36/81/51 16/64/51
f 16/64/50 36/81/50 31/24/50 12/23/50
f 29/14/53 22/13/53 26/75/53 34/82/53
f 34/82/52 26/75/52 21/32/52 30/31/52
f 3/27/1 48/26/1 52/108/1 8/57/1
f 8/161/1 52/162/1 47/9/1 4/12/1
f 39/29/1 21/32/1 25/77/1 44/163/1
f 44/98/1 25/74/1 20/73/1 40/95/1
f 12/23/1 57/22/1 61/119/1 17/67/1
f 17/68/1 61/116/1 56/25/1 13/28/1
f 30/31/1 66/30/1 70/129/1 35/85/1
f 35/86/1 70/126/1 65/21/1 31/24/1
f 10/60/58 77/164/58 78/165/58 14/61/58
f 14/66/59 78/166/59 76/35/59 11/34/59
f 82/15/60 29/14/60 32/84/60 84/167/60
f 84/168/61 32/79/61 28/33/61 83/36/61
f 22/13/62 80/16/62 81/169/62 27/78/62
f 27/72/63 81/170/63 79/171/63 19/69/63
f 73/7/64 2/6/64 5/172/64 75/173/64
f 75/174/65 5/50/65 1/49/65 74/175/65
f 85/20/51 92/19/51 98/140/51 88/132/51
f 88/132/50 98/140/50 94/143/50 86/135/50
f 93/44/53 99/43/53 105/146/53 97/141/53
f 97/141/52 105/146/52 101/149/52 94/143/52
f 100/48/55 106/47/55 112/152/55 104/147/55
f 104/147/54 112/152/54 108/155/54 101/149/54
f 107/40/57 87/39/57 90/136/57 111/153/57
f 111/153/56 90/136/56 86/135/56 108/155/56
f 67/37/64 107/40/64 109/154/64 72/176/64
f 72/177/65 109/150/65 106/47/65 64/46/65
f 99/43/62 55/42/62 63/178/62 102/144/62
f 102/148/63 63/179/63 58/45/63 100/48/63
f 49/41/60 93/44/60 95/142/60 54/109/60
f 54/101/61 95/138/61 92/19/61 46/18/61
f 87/39/58 38/38/58 41/92/58 91/137/58
f 91/134/59 41/87/59 37/17/59 85/20/59
f 1/49/5 19/69/5 79/171/5 74/175/5
