# Blender v2.93.0 OBJ File: ''
# www.blender.org
mtllib maqPalomitasVidrio.mtl
o Cube.002
v -1.000001 0.990882 -0.944892
v 0.999998 0.990882 1.055108
v -1.000001 0.990882 1.055108
v 0.999999 2.990882 1.055108
v -1.000001 2.990882 -0.944893
v -1.000002 2.990882 1.055107
v 0.999999 0.990882 -0.944892
v 0.999999 2.990882 -0.944892
vt 0.875000 0.500000
vt 0.875000 0.500000
vt 0.875000 0.500000
vt 0.875000 0.500000
vt 0.875000 0.500000
vt 0.875000 0.500000
vt 0.875000 0.500000
vt 0.875000 0.500000
vn 0.0000 -1.0000 -0.0000
vn -0.0000 1.0000 0.0000
vn -1.0000 -0.0000 -0.0000
vn 0.0000 -0.0000 -1.0000
vn 1.0000 -0.0000 0.0000
vn -0.0000 0.0000 1.0000
usemtl Material.002
s 1
f 1/1/1 2/2/1 3/3/1
f 4/4/2 5/5/2 6/6/2
f 6/6/3 1/1/3 3/3/3
f 5/5/4 7/7/4 1/1/4
f 7/7/5 4/4/5 2/2/5
f 3/3/6 4/4/6 6/6/6
f 1/1/1 7/7/1 2/2/1
f 4/4/2 8/8/2 5/5/2
f 6/6/3 5/5/3 1/1/3
f 5/5/4 8/8/4 7/7/4
f 7/7/5 8/8/5 4/4/5
f 3/3/6 2/2/6 4/4/6
