# Blender v2.93.0 OBJ File: 'puerta2.blend'
# www.blender.org
mtllib marco2.mtl
o Cube.003
v 0.168518 2.092278 -2.874680
v 0.168518 -4.028630 -2.874680
v 0.168518 2.092278 -2.593501
v 0.168518 -4.028630 -2.593501
v -0.168518 2.092278 -2.874680
v -0.168518 -4.028630 -2.874680
v -0.168518 2.092278 -2.593501
v -0.168518 -4.028630 -2.593501
v 0.168518 2.092278 2.617636
v 0.168518 -4.028630 2.617636
v 0.168518 2.092278 2.898814
v 0.168518 -4.028630 2.898814
v -0.168518 2.092278 2.617636
v -0.168518 -4.028630 2.617636
v -0.168518 2.092278 2.898814
v -0.168518 -4.028630 2.898814
v 0.168518 2.083918 2.746211
v 0.168518 2.069963 -2.795187
v 0.168518 1.802740 2.746918
v 0.168518 1.788786 -2.794479
v -0.168518 2.083918 2.746211
v -0.168518 2.069963 -2.795187
v -0.168518 1.802740 2.746918
v -0.168518 1.788786 -2.794479
vt 0.523360 0.500000
vt 0.570079 0.500000
vt 0.570079 0.544668
vt 0.523360 0.544668
vt 0.476640 0.544668
vt 0.523360 0.589336
vt 0.476640 0.589336
vt 0.476640 0.410664
vt 0.523360 0.410664
vt 0.523360 0.455332
vt 0.476640 0.455332
vt 0.429921 0.500000
vt 0.476640 0.500000
vt 0.429921 0.544668
vt 0.523360 0.500000
vt 0.570079 0.500000
vt 0.570079 0.544668
vt 0.523360 0.544668
vt 0.476640 0.544668
vt 0.523360 0.589336
vt 0.476640 0.589336
vt 0.476640 0.410664
vt 0.523360 0.410664
vt 0.523360 0.455332
vt 0.476640 0.455332
vt 0.429921 0.500000
vt 0.476640 0.500000
vt 0.429921 0.544668
vt 0.523360 0.500000
vt 0.570079 0.500000
vt 0.570079 0.544668
vt 0.523360 0.544668
vt 0.476640 0.544668
vt 0.523360 0.589336
vt 0.476640 0.589336
vt 0.476640 0.410664
vt 0.523360 0.410664
vt 0.523360 0.455332
vt 0.476640 0.455332
vt 0.429921 0.500000
vt 0.476640 0.500000
vt 0.429921 0.544668
vn 0.0000 1.0000 0.0000
vn 0.0000 0.0000 1.0000
vn -1.0000 0.0000 0.0000
vn 0.0000 -1.0000 0.0000
vn 1.0000 0.0000 0.0000
vn 0.0000 0.0000 -1.0000
vn 0.0000 0.0025 1.0000
vn 0.0000 -1.0000 0.0025
vn 0.0000 -0.0025 -1.0000
vn 0.0000 1.0000 -0.0025
usemtl Material.005
s off
f 1/1/1 5/2/1 7/3/1 3/4/1
f 4/5/2 3/4/2 7/6/2 8/7/2
f 8/8/3 7/9/3 5/10/3 6/11/3
f 6/12/4 2/13/4 4/5/4 8/14/4
f 2/13/5 1/1/5 3/4/5 4/5/5
f 6/11/6 5/10/6 1/1/6 2/13/6
f 9/15/1 13/16/1 15/17/1 11/18/1
f 12/19/2 11/18/2 15/20/2 16/21/2
f 16/22/3 15/23/3 13/24/3 14/25/3
f 14/26/4 10/27/4 12/19/4 16/28/4
f 10/27/5 9/15/5 11/18/5 12/19/5
f 14/25/6 13/24/6 9/15/6 10/27/6
f 17/29/7 21/30/7 23/31/7 19/32/7
f 20/33/8 19/32/8 23/34/8 24/35/8
f 24/36/3 23/37/3 21/38/3 22/39/3
f 22/40/9 18/41/9 20/33/9 24/42/9
f 18/41/5 17/29/5 19/32/5 20/33/5
f 22/39/10 21/38/10 17/29/10 18/41/10
