# Blender v2.93.0 OBJ File: ''
# www.blender.org
mtllib palomita.mtl
o Esfera
v 0.000000 0.980785 -0.195090
v 0.000000 0.831470 -0.555570
v 0.000000 0.555570 -0.831470
v 0.000000 0.195090 -0.980785
v 0.000000 -0.555570 -0.831470
v 0.000000 -0.831470 -0.555570
v 0.074658 0.980785 -0.180240
v 0.212608 0.831470 -0.513280
v 0.318190 0.555570 -0.768178
v 0.375330 0.195090 -0.906127
v 0.375330 -0.195090 -0.906127
v 0.318190 -0.555570 -0.768178
v 0.212608 -0.831470 -0.513280
v 0.074658 -0.980785 -0.180240
v 0.137950 0.980785 -0.137950
v 0.392848 0.831470 -0.392847
v 0.587938 0.555570 -0.587938
v 0.693520 0.195090 -0.693520
v 0.693520 -0.195090 -0.693520
v 0.587938 -0.555570 -0.587938
v 0.392848 -0.831470 -0.392847
v 0.137950 -0.980785 -0.137950
v 0.180240 0.980785 -0.074658
v 0.513280 0.831470 -0.212607
v 0.768178 0.555570 -0.318190
v 0.906127 0.195090 -0.375330
v 0.906127 -0.195090 -0.375330
v 0.768178 -0.555570 -0.318190
v 0.513280 -0.831470 -0.212607
v 0.180240 -0.980785 -0.074658
v 0.195090 0.980785 0.000000
v 0.555570 0.831470 0.000000
v 0.831469 0.555570 0.000000
v 0.980785 0.195090 0.000000
v 0.980785 -0.195090 0.000000
v 0.831469 -0.555570 0.000000
v 0.555570 -0.831470 0.000000
v 0.195090 -0.980785 0.000000
v 0.180240 0.980785 0.074658
v 0.513280 0.831470 0.212608
v 0.768178 0.555570 0.318190
v 0.906127 0.195090 0.375330
v 0.906127 -0.195090 0.375330
v 0.768178 -0.555570 0.318190
v 0.513280 -0.831470 0.212608
v 0.180240 -0.980785 0.074658
v 0.137950 0.980785 0.137950
v 0.392847 0.831470 0.392847
v 0.587938 0.555570 0.587938
v 0.693520 0.195090 0.693520
v 0.693520 -0.195090 0.693520
v 0.587938 -0.555570 0.587938
v 0.392847 -0.831470 0.392847
v 0.137950 -0.980785 0.137950
v 0.074658 0.980785 0.180240
v 0.212607 0.831470 0.513280
v 0.318190 0.555570 0.768178
v 0.375330 0.195090 0.906127
v 0.375330 -0.195090 0.906127
v 0.318190 -0.555570 0.768178
v 0.212607 -0.831470 0.513280
v 0.074658 -0.980785 0.180240
v 0.000000 0.980785 0.195090
v -0.000000 0.831470 0.555570
v -0.000000 0.555570 0.831469
v -0.000000 0.195090 0.980785
v -0.000000 -0.195090 0.980785
v -0.000000 -0.555570 0.831469
v -0.000000 -0.831470 0.555570
v -0.000000 -0.980785 0.195090
v -0.074658 0.980785 0.180240
v -0.212608 0.831470 0.513280
v -0.318189 0.555570 0.768177
v -0.375330 0.195090 0.906127
v -0.375330 -0.195090 0.906127
v -0.318190 -0.555570 0.768178
v -0.212608 -0.831470 0.513280
v -0.074658 -0.980785 0.180240
v -0.137950 0.980785 0.137950
v -0.392847 0.831470 0.392847
v -0.587937 0.555570 0.587938
v -0.693520 0.195090 0.693520
v -0.693520 -0.195090 0.693520
v -0.587938 -0.555570 0.587938
v -0.392847 -0.831470 0.392847
v -0.137950 -0.980785 0.137950
v -0.000000 1.000000 0.000000
v -0.180240 0.980785 0.074658
v -0.513280 0.831470 0.212607
v -0.768177 0.555570 0.318190
v -0.906127 0.195090 0.375330
v -0.906127 -0.195090 0.375330
v -0.768177 -0.555570 0.318190
v -0.513280 -0.831470 0.212607
v -0.180240 -0.980785 0.074658
v -0.195090 0.980785 0.000000
v -0.555570 0.831470 -0.000000
v -0.831469 0.555570 0.000000
v -0.980785 0.195090 -0.000000
v -0.980785 -0.195090 -0.000000
v -0.831469 -0.555570 0.000000
v -0.555570 -0.831470 -0.000000
v -0.195090 -0.980785 0.000000
v -0.180240 0.980785 -0.074658
v -0.513280 0.831470 -0.212607
v -0.768177 0.555570 -0.318189
v -0.906127 0.195090 -0.375330
v -0.906127 -0.195090 -0.375330
v -0.768177 -0.555570 -0.318189
v -0.513280 -0.831470 -0.212607
v -0.180240 -0.980785 -0.074658
v -0.137950 0.980785 -0.137950
v -0.392847 0.831470 -0.392847
v -0.587937 0.555570 -0.587937
v -0.693519 0.195090 -0.693520
v -0.693519 -0.195090 -0.693520
v -0.587937 -0.555570 -0.587937
v -0.392847 -0.831470 -0.392847
v -0.137950 -0.980785 -0.137950
v -0.074658 0.980785 -0.180240
v -0.212607 0.831470 -0.513279
v -0.318189 0.555570 -0.768177
v -0.375330 0.195090 -0.906127
v -0.375330 -0.195090 -0.906127
v -0.318189 -0.555570 -0.768177
v -0.212607 -0.831470 -0.513279
v -0.074658 -0.980785 -0.180240
v 0.000000 -0.195090 -0.980785
v 0.000000 -0.980785 -0.195090
v 0.000000 -1.000000 0.000000
vt 0.288622 0.758880
vt 0.300840 0.758880
vt 0.300840 0.784675
vt 0.288622 0.784675
vt 0.313058 0.810470
vt 0.300840 0.810470
vt 0.313058 0.784675
vt 0.288622 0.810470
vt 0.300840 0.836265
vt 0.288622 0.836265
vt 0.276405 0.733085
vt 0.288622 0.733085
vt 0.276405 0.758880
vt 0.313058 0.707290
vt 0.300840 0.707290
vt 0.300840 0.681495
vt 0.313058 0.681495
vt 0.288622 0.681495
vt 0.288622 0.707290
vt 0.276405 0.707290
vt 0.264187 0.810470
vt 0.276405 0.810470
vt 0.276405 0.836265
vt 0.264187 0.836265
vt 0.279459 0.849163
vt 0.276405 0.655700
vt 0.288622 0.655700
vt 0.276405 0.681495
vt 0.300840 0.733085
vt 0.297786 0.642803
vt 0.300840 0.655700
vt 0.276405 0.784675
vt 0.264187 0.733085
vt 0.264187 0.758880
vt 0.251969 0.733085
vt 0.251969 0.758880
vt 0.264187 0.681495
vt 0.264187 0.707290
vt 0.264187 0.784675
vt 0.251969 0.810470
vt 0.251969 0.836265
vt 0.251969 0.784675
vt 0.267241 0.849163
vt 0.264187 0.655700
vt 0.285568 0.642803
vt 0.251969 0.681495
vt 0.251969 0.707290
vt 0.239751 0.733085
vt 0.239751 0.758880
vt 0.239751 0.810470
vt 0.239751 0.836265
vt 0.255023 0.849163
vt 0.251969 0.655700
vt 0.239751 0.784675
vt 0.273350 0.642803
vt 0.239751 0.681495
vt 0.239751 0.707290
vt 0.227533 0.733085
vt 0.227533 0.758880
vt 0.239751 0.655700
vt 0.242805 0.849163
vt 0.227533 0.784675
vt 0.261132 0.642803
vt 0.227533 0.810470
vt 0.227533 0.836265
vt 0.227533 0.681495
vt 0.227533 0.707290
vt 0.215315 0.733085
vt 0.215315 0.758880
vt 0.227533 0.655700
vt 0.215315 0.784675
vt 0.230587 0.849163
vt 0.248914 0.642803
vt 0.215315 0.810470
vt 0.215315 0.836265
vt 0.215315 0.681495
vt 0.215315 0.707290
vt 0.203097 0.733085
vt 0.203097 0.758880
vt 0.203097 0.784675
vt 0.236696 0.642803
vt 0.218370 0.849163
vt 0.203097 0.810470
vt 0.203097 0.836265
vt 0.215315 0.655700
vt 0.203097 0.707290
vt 0.190879 0.733085
vt 0.190879 0.758880
vt 0.203097 0.681495
vt 0.206152 0.849163
vt 0.224479 0.642803
vt 0.190879 0.810470
vt 0.190879 0.836265
vt 0.203097 0.655700
vt 0.190879 0.784675
vt 0.178661 0.733085
vt 0.178661 0.758880
vt 0.190879 0.681495
vt 0.190879 0.707290
vt 0.193934 0.849163
vt 0.212261 0.642803
vt 0.178661 0.810470
vt 0.178661 0.836265
vt 0.178661 0.784675
vt 0.190879 0.655700
vt 0.166444 0.733085
vt 0.166444 0.758880
vt 0.178661 0.681495
vt 0.178661 0.707290
vt 0.181716 0.849163
vt 0.166444 0.810470
vt 0.166444 0.836265
vt 0.200043 0.642803
vt 0.178661 0.655700
vt 0.166444 0.784675
vt 0.166444 0.707290
vt 0.154226 0.733085
vt 0.349712 0.758880
vt 0.166444 0.681495
vt 0.154226 0.810470
vt 0.349712 0.836265
vt 0.187825 0.642803
vt 0.166444 0.655700
vt 0.154226 0.758880
vt 0.349712 0.784675
vt 0.169498 0.849163
vt 0.154226 0.707290
vt 0.349712 0.733085
vt 0.154226 0.784675
vt 0.349712 0.810470
vt 0.337494 0.733085
vt 0.337494 0.758880
vt 0.175607 0.642803
vt 0.337494 0.810470
vt 0.337494 0.836265
vt 0.154226 0.655700
vt 0.349712 0.681495
vt 0.337494 0.784675
vt 0.154226 0.681495
vt 0.349712 0.707290
vt 0.157280 0.849163
vt 0.154226 0.836265
vt 0.325276 0.733085
vt 0.325276 0.758880
vt 0.337494 0.707290
vt 0.163389 0.642803
vt 0.325276 0.784675
vt 0.325276 0.810470
vt 0.337494 0.655700
vt 0.337494 0.681495
vt 0.325276 0.836265
vt 0.340548 0.849163
vt 0.313058 0.733085
vt 0.313058 0.758880
vt 0.325276 0.681495
vt 0.325276 0.707290
vt 0.325276 0.655700
vt 0.313058 0.836265
vt 0.328330 0.849163
vt 0.346657 0.642803
vt 0.349712 0.655700
vt 0.313058 0.655700
vt 0.316113 0.849163
vt 0.334439 0.642803
vt 0.310004 0.642803
vt 0.303895 0.849163
vt 0.322222 0.642803
vt 0.291677 0.849163
vn 0.1807 0.3764 -0.9087
vn -0.1393 0.7002 -0.7002
vn 0.0759 0.9212 -0.3816
vn 0.5556 0.0000 -0.8315
vn -0.1393 -0.7002 -0.7002
vn 0.1393 0.7002 -0.7002
vn 0.1393 -0.7002 -0.7002
vn 0.5147 -0.3764 -0.7703
vn 0.3235 0.9212 -0.2161
vn 0.0555 0.9950 -0.0831
vn 0.2161 -0.9212 -0.3235
vn 0.1807 -0.3764 -0.9087
vn 0.2161 0.9212 -0.3235
vn 0.0195 -0.9950 -0.0980
vn 0.3966 0.7002 -0.5936
vn 0.8315 0.0000 -0.5556
vn 0.3966 -0.7002 -0.5936
vn 0.9808 0.0000 -0.1951
vn 0.5936 -0.7002 -0.3966
vn 0.7703 -0.3764 -0.5147
vn 0.5936 0.7002 -0.3966
vn 0.3816 0.9212 -0.0759
vn 0.9087 0.3764 -0.1807
vn 0.0831 0.9950 -0.0555
vn 0.3235 -0.9212 -0.2161
vn 0.0555 -0.9950 -0.0831
vn 0.7002 -0.7002 -0.1393
vn 0.9087 -0.3764 -0.1807
vn 0.7002 0.7002 -0.1393
vn 0.9808 0.0000 0.1951
vn 0.3816 0.9212 0.0759
vn 0.0980 0.9950 -0.0195
vn 0.3816 -0.9212 -0.0759
vn 0.9087 0.3764 0.1807
vn 0.0831 -0.9950 -0.0555
vn 0.7002 -0.7002 0.1393
vn 0.9087 -0.3764 0.1807
vn 0.7002 0.7002 0.1393
vn 0.8315 0.0000 0.5556
vn 0.3816 -0.9212 0.0759
vn 0.0980 0.9950 0.0195
vn 0.7703 0.3764 0.5147
vn 0.0980 -0.9950 -0.0195
vn 0.3235 0.9212 0.2161
vn 0.5936 -0.7002 0.3966
vn 0.7703 -0.3764 0.5147
vn 0.5936 0.7002 0.3966
vn 0.5556 0.0000 0.8315
vn 0.3235 -0.9212 0.2161
vn 0.5147 0.3764 0.7703
vn 0.0831 0.9950 0.0555
vn 0.0980 -0.9950 0.0195
vn 0.2161 0.9212 0.3235
vn 0.3966 -0.7002 0.5936
vn 0.5147 -0.3764 0.7703
vn 0.3966 0.7002 0.5936
vn 0.1951 0.0000 0.9808
vn 0.1807 0.3764 0.9087
vn 0.0831 -0.9950 0.0555
vn 0.0555 0.9950 0.0831
vn 0.0759 0.9212 0.3816
vn 0.2161 -0.9212 0.3235
vn 0.1807 -0.3764 0.9087
vn 0.1393 0.7002 0.7002
vn -0.1951 0.0000 0.9808
vn 0.1393 -0.7002 0.7002
vn 0.0195 0.9950 0.0980
vn 0.0555 -0.9950 0.0831
vn -0.0759 0.9212 0.3816
vn 0.0759 -0.9212 0.3816
vn -0.1807 0.3764 0.9087
vn -0.1393 0.7002 0.7002
vn -0.5556 0.0000 0.8315
vn -0.1393 -0.7002 0.7002
vn -0.0195 0.9950 0.0980
vn 0.0195 -0.9950 0.0980
vn -0.2161 0.9212 0.3235
vn -0.1807 -0.3764 0.9087
vn -0.5147 0.3764 0.7703
vn -0.0759 -0.9212 0.3816
vn -0.3966 0.7002 0.5936
vn -0.8315 0.0000 0.5556
vn -0.3966 -0.7002 0.5936
vn -0.0555 0.9950 0.0831
vn -0.3235 0.9212 0.2161
vn -0.5147 -0.3764 0.7703
vn -0.0195 -0.9950 0.0980
vn -0.2161 -0.9212 0.3235
vn -0.7703 0.3764 0.5147
vn -0.7703 -0.3764 0.5147
vn -0.5936 0.7002 0.3966
vn -0.9808 0.0000 0.1951
vn -0.5936 -0.7002 0.3966
vn -0.3816 0.9212 0.0759
vn -0.0555 -0.9950 0.0831
vn -0.3235 -0.9212 0.2161
vn -0.9087 0.3764 0.1807
vn -0.0831 0.9950 0.0555
vn -0.9087 -0.3764 0.1807
vn -0.7002 0.7002 0.1393
vn -0.9808 0.0000 -0.1951
vn -0.0831 -0.9950 0.0555
vn -0.3816 0.9212 -0.0759
vn -0.3816 -0.9212 0.0759
vn -0.9087 0.3764 -0.1807
vn -0.7002 -0.7002 0.1393
vn -0.0980 0.9950 0.0195
vn -0.7002 0.7002 -0.1393
vn -0.8315 0.0000 -0.5556
vn -0.9087 -0.3764 -0.1807
vn -0.0980 -0.9950 0.0195
vn -0.5936 0.7002 -0.3966
vn -0.3816 -0.9212 -0.0759
vn -0.7703 0.3764 -0.5147
vn -0.7002 -0.7002 -0.1393
vn -0.3235 0.9212 -0.2161
vn -0.0980 0.9950 -0.0195
vn -0.5556 0.0000 -0.8315
vn -0.5936 -0.7002 -0.3966
vn -0.7703 -0.3764 -0.5147
vn -0.3966 0.7002 -0.5936
vn -0.3235 -0.9212 -0.2161
vn -0.5147 0.3764 -0.7703
vn -0.2161 0.9212 -0.3235
vn -0.0831 0.9950 -0.0555
vn -0.0980 -0.9950 -0.0195
vn -0.1951 -0.0000 -0.9808
vn -0.3966 -0.7002 -0.5936
vn -0.5147 -0.3764 -0.7703
vn -0.2161 -0.9212 -0.3235
vn -0.0555 0.9950 -0.0831
vn -0.0831 -0.9950 -0.0555
vn -0.0195 -0.9950 -0.0980
vn -0.1807 -0.3764 -0.9087
vn -0.0195 0.9950 -0.0980
vn -0.0759 -0.9212 -0.3816
vn -0.0555 -0.9950 -0.0831
vn -0.1807 0.3764 -0.9087
vn 0.7703 0.3764 -0.5147
vn 0.0759 -0.9212 -0.3816
vn 0.5147 0.3764 -0.7703
vn -0.0759 0.9212 -0.3816
vn 0.0195 0.9950 -0.0980
vn 0.1951 -0.0000 -0.9808
usemtl Material.001
s off
f 10/1/1 4/2/1 3/3/1 9/4/1
f 121/5/2 2/6/2 3/3/2 122/7/2
f 8/8/3 2/6/3 1/9/3 7/10/3
f 19/11/4 11/12/4 10/1/4 18/13/4
f 125/14/5 5/15/5 6/16/5 126/17/5
f 9/4/6 3/3/6 2/6/6 8/8/6
f 13/18/7 6/16/7 5/15/7 12/19/7
f 20/20/8 12/19/8 11/12/8 19/11/8
f 24/21/9 16/22/9 15/23/9 23/24/9
f 87/25/10 15/23/10 7/10/10
f 22/26/11 14/27/11 13/18/11 21/28/11
f 12/19/12 5/15/12 128/29/12 11/12/12
f 16/22/13 8/8/13 7/10/13 15/23/13
f 130/30/14 129/31/14 14/27/14
f 17/32/15 9/4/15 8/8/15 16/22/15
f 27/33/16 19/11/16 18/13/16 26/34/16
f 21/28/17 13/18/17 12/19/17 20/20/17
f 35/35/18 27/33/18 26/34/18 34/36/18
f 29/37/19 21/28/19 20/20/19 28/38/19
f 28/38/20 20/20/20 19/11/20 27/33/20
f 25/39/21 17/32/21 16/22/21 24/21/21
f 32/40/22 24/21/22 23/24/22 31/41/22
f 34/36/23 26/34/23 25/39/23 33/42/23
f 87/43/24 23/24/24 15/23/24
f 30/44/25 22/26/25 21/28/25 29/37/25
f 130/45/26 14/27/26 22/26/26
f 37/46/27 29/37/27 28/38/27 36/47/27
f 36/47/28 28/38/28 27/33/28 35/35/28
f 33/42/29 25/39/29 24/21/29 32/40/29
f 43/48/30 35/35/30 34/36/30 42/49/30
f 40/50/31 32/40/31 31/41/31 39/51/31
f 87/52/32 31/41/32 23/24/32
f 38/53/33 30/44/33 29/37/33 37/46/33
f 42/49/34 34/36/34 33/42/34 41/54/34
f 130/55/35 22/26/35 30/44/35
f 45/56/36 37/46/36 36/47/36 44/57/36
f 44/57/37 36/47/37 35/35/37 43/48/37
f 41/54/38 33/42/38 32/40/38 40/50/38
f 51/58/39 43/48/39 42/49/39 50/59/39
f 46/60/40 38/53/40 37/46/40 45/56/40
f 87/61/41 39/51/41 31/41/41
f 50/59/42 42/49/42 41/54/42 49/62/42
f 130/63/43 30/44/43 38/53/43
f 48/64/44 40/50/44 39/51/44 47/65/44
f 53/66/45 45/56/45 44/57/45 52/67/45
f 52/67/46 44/57/46 43/48/46 51/58/46
f 49/62/47 41/54/47 40/50/47 48/64/47
f 59/68/48 51/58/48 50/59/48 58/69/48
f 54/70/49 46/60/49 45/56/49 53/66/49
f 58/69/50 50/59/50 49/62/50 57/71/50
f 87/72/51 47/65/51 39/51/51
f 130/73/52 38/53/52 46/60/52
f 56/74/53 48/64/53 47/65/53 55/75/53
f 61/76/54 53/66/54 52/67/54 60/77/54
f 60/77/55 52/67/55 51/58/55 59/68/55
f 57/71/56 49/62/56 48/64/56 56/74/56
f 67/78/57 59/68/57 58/69/57 66/79/57
f 66/79/58 58/69/58 57/71/58 65/80/58
f 130/81/59 46/60/59 54/70/59
f 87/82/60 55/75/60 47/65/60
f 64/83/61 56/74/61 55/75/61 63/84/61
f 62/85/62 54/70/62 53/66/62 61/76/62
f 68/86/63 60/77/63 59/68/63 67/78/63
f 65/80/64 57/71/64 56/74/64 64/83/64
f 75/87/65 67/78/65 66/79/65 74/88/65
f 69/89/66 61/76/66 60/77/66 68/86/66
f 87/90/67 63/84/67 55/75/67
f 130/91/68 54/70/68 62/85/68
f 72/92/69 64/83/69 63/84/69 71/93/69
f 70/94/70 62/85/70 61/76/70 69/89/70
f 74/88/71 66/79/71 65/80/71 73/95/71
f 73/95/72 65/80/72 64/83/72 72/92/72
f 83/96/73 75/87/73 74/88/73 82/97/73
f 77/98/74 69/89/74 68/86/74 76/99/74
f 87/100/75 71/93/75 63/84/75
f 130/101/76 62/85/76 70/94/76
f 80/102/77 72/92/77 71/93/77 79/103/77
f 76/99/78 68/86/78 67/78/78 75/87/78
f 82/97/79 74/88/79 73/95/79 81/104/79
f 78/105/80 70/94/80 69/89/80 77/98/80
f 81/104/81 73/95/81 72/92/81 80/102/81
f 92/106/82 83/96/82 82/97/82 91/107/82
f 85/108/83 77/98/83 76/99/83 84/109/83
f 87/110/84 79/103/84 71/93/84
f 89/111/85 80/102/85 79/103/85 88/112/85
f 84/109/86 76/99/86 75/87/86 83/96/86
f 130/113/87 70/94/87 78/105/87
f 86/114/88 78/105/88 77/98/88 85/108/88
f 91/107/89 82/97/89 81/104/89 90/115/89
f 93/116/90 84/109/90 83/96/90 92/106/90
f 90/115/91 81/104/91 80/102/91 89/111/91
f 100/117/92 92/106/92 91/107/92 99/118/92
f 94/119/93 85/108/93 84/109/93 93/116/93
f 97/120/94 89/111/94 88/112/94 96/121/94
f 130/122/95 78/105/95 86/114/95
f 95/123/96 86/114/96 85/108/96 94/119/96
f 99/124/97 91/107/97 90/115/97 98/125/97
f 87/126/98 88/112/98 79/103/98
f 101/127/99 93/116/99 92/106/99 100/128/99
f 98/129/100 90/115/100 89/111/100 97/130/100
f 108/131/101 100/117/101 99/118/101 107/132/101
f 130/133/102 86/114/102 95/123/102
f 105/134/103 97/120/103 96/121/103 104/135/103
f 103/136/104 95/123/104 94/119/104 102/137/104
f 107/132/105 99/124/105 98/125/105 106/138/105
f 102/139/106 94/119/106 93/116/106 101/140/106
f 87/141/107 96/142/107 88/112/107
f 106/138/108 98/129/108 97/130/108 105/134/108
f 116/143/109 108/131/109 107/132/109 115/144/109
f 109/145/110 101/127/110 100/128/110 108/131/110
f 130/146/111 95/123/111 103/136/111
f 114/147/112 106/138/112 105/134/112 113/148/112
f 111/149/113 103/136/113 102/137/113 110/150/113
f 115/144/114 107/132/114 106/138/114 114/147/114
f 110/150/115 102/139/115 101/140/115 109/145/115
f 113/148/116 105/134/116 104/135/116 112/151/116
f 87/152/117 104/135/117 96/121/117
f 124/153/118 116/143/118 115/144/118 123/154/118
f 118/155/119 110/150/119 109/145/119 117/156/119
f 117/156/120 109/145/120 108/131/120 116/143/120
f 122/7/121 114/147/121 113/148/121 121/5/121
f 119/157/122 111/149/122 110/150/122 118/155/122
f 123/154/123 115/144/123 114/147/123 122/7/123
f 121/5/124 113/148/124 112/151/124 120/158/124
f 87/159/125 112/151/125 104/135/125
f 130/160/126 103/161/126 111/149/126
f 128/29/127 124/153/127 123/154/127 4/2/127
f 126/17/128 118/155/128 117/156/128 125/14/128
f 125/14/129 117/156/129 116/143/129 124/153/129
f 127/162/130 119/157/130 118/155/130 126/17/130
f 87/163/131 120/158/131 112/151/131
f 130/164/132 111/149/132 119/157/132
f 130/165/133 127/162/133 129/31/133
f 5/15/134 125/14/134 124/153/134 128/29/134
f 87/166/135 1/9/135 120/158/135
f 129/31/136 127/162/136 126/17/136 6/16/136
f 130/167/137 119/157/137 127/162/137
f 122/7/138 3/3/138 4/2/138 123/154/138
f 26/34/139 18/13/139 17/32/139 25/39/139
f 14/27/140 129/31/140 6/16/140 13/18/140
f 18/13/141 10/1/141 9/4/141 17/32/141
f 121/5/142 120/158/142 1/9/142 2/6/142
f 87/168/143 7/10/143 1/9/143
f 11/12/144 128/29/144 4/2/144 10/1/144
