# Blender v2.93.0 OBJ File: 'pared.blend'
# www.blender.org
mtllib pared.mtl
o Cube
v 0.154297 4.201598 -10.217396
v 0.154297 -4.201598 -10.217396
v 0.154297 4.201598 10.217396
v 0.154297 -4.201598 10.217396
v -0.154297 4.201598 -10.217396
v -0.154297 -4.201598 -10.217396
v -0.154297 4.201598 10.217396
v -0.154297 -4.201598 10.217396
vt 0.875226 0.121669
vt 0.951562 0.121669
vt 0.951562 0.177944
vt 0.875226 0.177944
vt 0.798890 0.177944
vt 0.875226 0.234219
vt 0.798890 0.234219
vt 0.683635 0.005562
vt 0.992598 0.005562
vt 0.992598 0.238275
vt 0.683635 0.238275
vt 0.722554 0.121669
vt 0.798890 0.121669
vt 0.722554 0.177944
vt 0.676597 0.010336
vt 0.992186 0.010336
vt 0.992186 0.237278
vt 0.676597 0.237278
vt 0.798890 0.065395
vt 0.875226 0.065395
vn 0.0000 1.0000 0.0000
vn 0.0000 0.0000 1.0000
vn -1.0000 0.0000 0.0000
vn 0.0000 -1.0000 0.0000
vn 1.0000 0.0000 0.0000
vn 0.0000 0.0000 -1.0000
usemtl Material
s off
f 1/1/1 5/2/1 7/3/1 3/4/1
f 4/5/2 3/4/2 7/6/2 8/7/2
f 8/8/3 7/9/3 5/10/3 6/11/3
f 6/12/4 2/13/4 4/5/4 8/14/4
f 2/15/5 1/16/5 3/17/5 4/18/5
f 6/19/6 5/20/6 1/1/6 2/13/6
