# Blender v2.93.0 OBJ File: ''
# www.blender.org
mtllib piernaDer.mtl
o rdmobj00
v 0.074601 0.007004 0.034895
v 0.074742 0.000491 -0.015251
v 0.039359 -0.033269 -0.085049
v -0.014989 -0.014585 -0.093248
v -0.084207 0.027508 0.020889
v -0.020687 0.017966 0.075481
v 0.067731 -0.035604 -0.014329
v 0.066485 -0.032431 0.035199
v 0.036260 -0.236610 0.023619
v -0.008666 -0.234443 0.035178
v 0.000426 -0.358872 0.035614
v 0.021406 -0.361106 0.019615
v -0.011622 -0.364679 -0.017760
v -0.012276 -0.233076 -0.052480
v 0.014795 -0.232669 -0.053276
v 0.000882 -0.364608 -0.020503
v -0.041847 -0.234626 -0.020557
v -0.025015 -0.363090 0.001867
v -0.039981 -0.234716 0.007200
v -0.021185 -0.361084 0.019880
v 0.038751 -0.236269 -0.013387
v 0.018296 -0.362933 0.002168
v -0.013773 -0.181095 0.044365
v -0.046743 -0.179093 0.015217
v -0.017945 -0.186383 -0.041953
v 0.015349 -0.187280 -0.042211
v -0.048426 -0.185070 -0.010795
v 0.040037 -0.184421 0.026892
v 0.041976 -0.189130 -0.005472
v -0.018298 -0.159837 -0.043053
v 0.017602 -0.160272 -0.043224
v -0.049539 -0.166552 -0.007335
v 0.043513 -0.171447 -0.002200
v -0.081530 0.019229 -0.029821
v 0.005415 -0.382387 0.052427
v 0.034043 -0.382846 0.031798
v 0.046917 -0.338420 0.037703
v 0.002748 -0.328083 0.074513
v 0.008942 -0.382571 -0.026301
v -0.007992 -0.382626 -0.023596
v -0.026238 -0.342357 -0.046264
v 0.000464 -0.345066 -0.052049
v -0.028064 -0.382496 0.002336
v -0.055348 -0.334915 -0.003141
v -0.023956 -0.382429 0.028617
v -0.046114 -0.329989 0.038387
v 0.031219 -0.382903 0.007825
v 0.038716 -0.344103 0.000163
v -0.003701 -0.391407 0.091714
v 0.040504 -0.418449 0.080018
v -0.042259 -0.417454 0.072354
v -0.003834 -0.403729 0.119704
v -0.037666 -0.423167 0.114301
v -0.019093 -0.436283 0.149459
v -0.004860 -0.436281 0.154507
v -0.035679 -0.416824 0.016443
v -0.036804 -0.436180 0.111205
v -0.043205 -0.436179 0.063078
v 0.038070 -0.436071 0.036795
v 0.036847 -0.417214 0.028631
v 0.041772 -0.436179 0.078616
v 0.012571 -0.436296 0.150145
v 0.033668 -0.424871 0.115615
v -0.037311 -0.436067 0.024535
v 0.033054 -0.436180 0.112731
v 0.014334 -0.417253 -0.035338
v -0.006127 -0.417319 -0.035043
v 0.014861 -0.436179 -0.036670
v -0.006475 -0.436179 -0.036495
v -0.037005 -0.436179 0.005619
v 0.038677 -0.436179 0.016637
v -0.013398 1.201280 0.327051
v -0.013175 1.205470 0.327282
vt 0.601279 0.630719
vt 0.890830 0.600528
vt 0.843627 0.633910
vt 0.818801 0.656334
vt 0.718761 0.683340
vt 0.665270 0.673609
vt 0.875435 0.590849
vt 0.593830 0.595268
vt 0.622945 0.617126
vt 0.605517 0.587950
vt 0.678634 0.520044
vt 0.705486 0.531622
vt 0.722122 0.463725
vt 0.709967 0.456740
vt 0.753315 0.460315
vt 0.780557 0.531940
vt 0.791026 0.528012
vt 0.760490 0.456997
vt 0.755385 0.535893
vt 0.741601 0.464369
vt 0.734861 0.536129
vt 0.731951 0.465223
vt 0.814048 0.510869
vt 0.779837 0.445181
vt 0.699179 0.450033
vt 0.654828 0.507623
vt 0.699368 0.562355
vt 0.729549 0.566860
vt 0.782909 0.558256
vt 0.802563 0.550584
vt 0.750245 0.563731
vt 0.667488 0.547177
vt 0.832715 0.531241
vt 0.648460 0.533214
vt 0.786464 0.572448
vt 0.808087 0.564183
vt 0.748224 0.573655
vt 0.839045 0.538518
vt 0.646461 0.541775
vt 0.756028 0.678886
vt 0.723880 0.828505
vt 0.685492 0.845334
vt 0.702566 0.872913
vt 0.734342 0.868962
vt 0.864163 0.850074
vt 0.846871 0.842744
vt 0.834827 0.876771
vt 0.850093 0.881252
vt 0.804161 0.831645
vt 0.804132 0.872380
vt 0.773522 0.827197
vt 0.769837 0.869467
vt 0.906288 0.864517
vt 0.894850 0.893031
vt 0.664126 0.860210
vt 0.674941 0.888911
vt 0.834405 0.912821
vt 0.849510 0.912188
vt 0.801595 0.910168
vt 0.779288 0.909409
vt 0.742148 0.909647
vt 0.704476 0.912409
vt 0.881809 0.919384
vt 0.686535 0.918607
vt 0.497229 0.128943
vt 0.499486 0.085406
vt 0.445767 0.099273
vt 0.477294 0.150829
vt 0.519802 0.151383
vt 0.543675 0.098764
vt 0.494400 0.054265
vt 0.525358 0.052412
vt 0.494331 0.014299
vt 0.477917 0.009984
vt 0.555199 0.163768
vt 0.534509 0.045005
vt 0.566366 0.096232
vt 0.431124 0.151740
vt 0.450176 0.158954
vt 0.430701 0.100465
vt 0.462293 0.017683
vt 0.452406 0.058498
vt 0.577316 0.143462
vt 0.440887 0.059926
vt 0.505526 0.195968
vt 0.495685 0.197835
vt 0.491819 0.221137
vt 0.510217 0.221129
vt 0.518644 0.175659
vt 0.479090 0.171432
vt 0.537866 0.354148
vt 0.536910 0.342688
vt 0.483667 0.347823
vt 0.486706 0.359567
vt 0.491923 0.237259
vt 0.516495 0.236145
vt 0.569340 0.181695
vt 0.435877 0.183378
vt 0.487576 0.372210
vt 0.540599 0.366732
vt 0.481563 0.324111
vt 0.541732 0.317462
vt 0.537534 0.296464
vt 0.488665 0.295040
vt 0.513385 0.269796
vt 0.503164 0.272384
vt 0.525316 0.273037
vt 0.522831 0.398896
vt 0.507960 0.398458
vn 0.2450 -0.8151 0.5250
vn 0.6602 -0.7231 -0.2032
vn 0.5854 -0.3334 -0.7390
vn -0.4422 -0.2810 -0.8518
vn -0.9329 -0.1312 0.3353
vn -0.1202 -0.2252 0.9669
vn 0.7862 -0.5975 -0.1580
vn 0.9739 -0.1871 -0.1283
vn 0.8705 -0.1768 0.4594
vn 0.8724 -0.0989 0.4787
vn -0.2095 -0.0837 0.9742
vn 0.1010 -0.0445 0.9939
vn 0.9211 -0.1218 0.3698
vn -0.4777 -0.2306 -0.8477
vn -0.4857 -0.0247 -0.8738
vn 0.2786 -0.0237 -0.9601
vn 0.5464 -0.2449 -0.8009
vn -0.9444 -0.1344 -0.3000
vn -0.9835 -0.1565 -0.0905
vn -0.8788 -0.1371 0.4570
vn -0.7793 -0.0654 0.6232
vn 0.9275 -0.0864 -0.3637
vn 0.9577 -0.1608 -0.2387
vn -0.3133 -0.1787 0.9327
vn -0.9117 -0.1533 0.3811
vn -0.4023 0.0970 -0.9103
vn 0.5349 0.0425 -0.8438
vn -0.9089 -0.0065 -0.4169
vn 0.7812 -0.1491 0.6062
vn 0.9783 -0.0372 -0.2039
vn -0.2645 -0.1759 -0.9482
vn 0.4471 -0.2140 -0.8685
vn -0.9072 -0.1229 -0.4023
vn 0.9277 -0.1467 -0.3434
vn -0.9142 -0.1613 -0.3719
vn 0.4216 0.1889 0.8869
vn 0.9847 0.0438 0.1685
vn 0.7937 -0.3059 0.5258
vn -0.2234 -0.3890 0.8938
vn 0.2869 -0.2083 -0.9350
vn -0.4981 -0.1691 -0.8505
vn -0.3848 -0.5897 -0.7100
vn 0.5391 -0.4048 -0.7386
vn -0.9618 -0.1743 -0.2110
vn -0.8133 -0.5269 -0.2469
vn -0.9162 0.0467 0.3979
vn -0.8067 -0.4348 0.4003
vn 0.2152 -0.3503 0.9116
vn -0.2234 -0.3889 0.8938
vn 0.9227 -0.0606 -0.3808
vn 0.9239 -0.2489 -0.2905
vn -0.2435 0.8204 0.5174
vn 0.4134 0.8076 0.4205
vn 0.3923 0.8089 0.4380
vn -0.2717 0.8165 0.5094
vn 0.6701 0.7409 0.0455
vn 0.6728 0.7366 0.0690
vn 0.5647 0.7066 -0.4265
vn 0.5509 0.7190 -0.4237
vn 0.1644 0.7638 -0.6242
vn -0.0949 0.7952 -0.5988
vn -0.5297 0.8025 -0.2747
vn -0.5332 0.8056 -0.2583
vn -0.6534 0.7195 0.2356
vn -0.6467 0.7262 0.2333
vn 0.5114 0.5224 0.6824
vn 0.0345 0.9405 0.3381
vn 0.9172 0.3554 0.1803
vn -0.8850 0.2261 0.4070
vn -0.9245 0.3706 0.0889
vn 0.2785 0.8913 0.3579
vn -0.7477 0.6469 0.1498
vn -0.1212 0.8448 0.5212
vn -0.8526 0.3836 0.3548
vn -0.6229 0.4846 0.6141
vn -0.0330 0.7304 0.6822
vn -0.9544 0.2030 -0.2188
vn -0.4773 -0.8724 0.1053
vn -0.9985 0.0549 -0.0090
vn -0.9721 -0.0884 0.2171
vn 0.8887 -0.1133 -0.4442
vn 0.8817 -0.0558 -0.4686
vn 0.9946 0.0647 0.0809
vn 0.5811 0.4925 0.6480
vn 0.7779 0.4757 0.4105
vn -0.9879 0.0795 -0.1332
vn -0.9948 0.0912 -0.0455
vn 0.9508 -0.0726 0.3012
vn 0.7626 -0.6004 0.2407
vn 0.5142 0.1897 -0.8364
vn -0.6175 0.1712 -0.7677
vn -0.9080 0.1186 -0.4019
vn 0.8817 -0.0558 -0.4685
vn 0.6481 -0.6885 -0.3255
vn 0.1166 -0.6941 -0.7104
vn -0.6329 -0.0350 -0.7734
vn 0.5394 0.0741 -0.8388
vn -0.3057 0.0761 -0.9491
vn -0.8225 0.1925 -0.5353
vn 0.9147 0.1725 -0.3656
vn -0.5222 -0.3188 0.7910
vn -0.0481 -0.9425 0.3308
vn -0.1015 -0.7607 0.6412
vn -0.1015 -0.7606 0.6412
vn -0.1424 -0.5388 0.8303
vn -0.7636 -0.2449 0.5975
vn 0.0002 -1.0000 -0.0016
vn 0.0582 -0.9319 -0.3581
vn 0.0002 -1.0000 -0.0012
vn 0.6171 -0.7571 0.2142
vn -0.3371 -0.9372 0.0899
vn -0.0001 -1.0000 -0.0023
vn -0.5887 -0.7617 0.2705
vn 0.3630 -0.9108 0.1968
vn 0.0000 -1.0000 -0.0000
vn 0.6352 -0.3109 0.7070
vn -0.7080 0.1131 0.6970
vn -0.9618 -0.1742 -0.2110
vn -0.9909 -0.0095 0.1343
usemtl johnny
s 1
f 1/1/1 2/2/2 3/3/3 4/4/4 5/5/5 6/6/6
f 2/2/7 7/7/8 3/3/3
f 2/8/7 1/1/1 8/9/9
f 8/9/9 7/10/8 2/8/7
f 9/11/10 10/12/11 11/13/12
f 11/13/12 12/14/13 9/11/10
f 13/15/14 14/16/15 15/17/16
f 15/17/16 16/18/17 13/15/14
f 17/19/18 14/16/15 13/15/14
f 13/15/14 18/20/19 17/19/18
f 19/21/20 17/19/18 18/20/19
f 18/20/19 20/22/21 19/21/20
f 10/12/11 19/21/20 20/22/21
f 20/22/21 11/13/12 10/12/11
f 16/18/17 15/17/16 21/23/22
f 21/23/22 22/24/23 16/18/17
f 22/25/23 21/26/22 9/11/10
f 9/11/10 12/14/13 22/25/23
f 23/27/24 24/28/25 19/21/20
f 19/21/20 10/12/11 23/27/24
f 25/29/26 26/30/27 15/17/16
f 15/17/16 14/16/15 25/29/26
f 27/31/28 25/29/26 14/16/15
f 14/16/15 17/19/18 27/31/28
f 24/28/25 27/31/28 17/19/18
f 17/19/18 19/21/20 24/28/25
f 28/32/29 23/27/24 10/12/11
f 10/12/11 9/11/10 28/32/29
f 26/30/27 29/33/30 21/23/22
f 21/23/22 15/17/16 26/30/27
f 29/34/30 28/32/29 9/11/10
f 9/11/10 21/26/22 29/34/30
f 30/35/31 31/36/32 26/30/27
f 26/30/27 25/29/26 30/35/31
f 32/37/33 30/35/31 25/29/26
f 25/29/26 27/31/28 32/37/33
f 24/28/25 32/37/33 27/31/28
f 26/30/27 31/36/32 33/38/34
f 33/38/34 29/33/30 26/30/27
f 33/39/34 28/32/29 29/34/30
f 28/32/29 8/9/9 6/6/6
f 6/6/6 23/27/24 28/32/29
f 30/35/31 4/4/4 3/3/3
f 3/3/3 31/36/32 30/35/31
f 32/37/33 34/40/35 4/4/4
f 4/4/4 30/35/31 32/37/33
f 5/5/5 34/40/35 32/37/33
f 32/37/33 24/28/25 5/5/5
f 6/6/6 5/5/5 24/28/25
f 24/28/25 23/27/24 6/6/6
f 3/3/3 7/7/8 33/38/34
f 33/38/34 31/36/32 3/3/3
f 7/10/8 8/9/9 28/32/29
f 28/32/29 33/39/34 7/10/8
f 34/40/35 5/5/5 4/4/4
f 35/41/36 36/42/37 37/43/38
f 37/43/38 38/44/39 35/41/36
f 39/45/40 40/46/41 41/47/42
f 41/47/42 42/48/43 39/45/40
f 40/46/41 43/49/44 44/50/45
f 44/50/45 41/47/42 40/46/41
f 43/49/44 45/51/46 46/52/47
f 46/52/47 44/50/45 43/49/44
f 45/51/46 35/41/48 38/44/49
f 38/44/49 46/52/47 45/51/46
f 47/53/50 39/45/40 42/48/43
f 42/48/43 48/54/51 47/53/50
f 36/42/37 47/55/50 48/56/51
f 48/56/51 37/43/38 36/42/37
f 42/48/52 41/47/53 13/57/54
f 13/57/54 16/58/55 42/48/52
f 13/57/54 41/47/53 44/50/56
f 44/50/56 18/59/57 13/57/54
f 44/50/56 46/52/58 20/60/59
f 20/60/59 18/59/57 44/50/56
f 20/60/59 46/52/58 38/44/60
f 38/44/60 11/61/61 20/60/59
f 11/61/61 38/44/60 37/43/62
f 37/43/62 12/62/63 11/61/61
f 22/63/64 48/54/65 42/48/52
f 42/48/52 16/58/55 22/63/64
f 37/43/62 48/56/65 22/64/64
f 22/64/64 12/62/63 37/43/62
f 35/65/66 49/66/67 50/67/68
f 50/67/68 36/68/37 35/65/66
f 45/69/69 51/70/70 49/66/67
f 49/66/67 35/65/71 45/69/72
f 52/71/73 53/72/74 54/73/75
f 54/73/75 55/74/76 52/71/73
f 45/69/69 56/75/77 51/70/70
f 57/76/78 53/72/74 51/70/70
f 51/70/70 58/77/79 57/76/80
f 59/78/81 60/79/82 50/67/68
f 50/67/68 61/80/83 59/78/81
f 62/81/84 63/82/85 52/71/73
f 52/71/73 55/74/76 62/81/84
f 63/82/85 50/67/68 49/66/67
f 49/66/67 52/71/73 63/82/85
f 52/71/73 49/66/67 51/70/70
f 51/70/70 53/72/74 52/71/73
f 64/83/86 58/77/79 51/70/70
f 51/70/70 56/75/87 64/83/86
f 65/84/88 61/80/83 50/67/68
f 50/67/68 63/82/85 65/84/89
f 40/85/41 39/86/40 66/87/90
f 66/87/90 67/88/91 40/85/41
f 43/89/44 40/85/41 67/88/91
f 67/88/91 56/75/92 43/89/44
f 36/68/37 60/79/82 47/90/50
f 60/91/93 59/92/94 64/93/95
f 64/93/95 56/94/96 60/91/93
f 66/87/90 68/95/97 69/96/98
f 69/96/98 67/88/91 66/87/90
f 67/88/91 69/96/98 70/97/99
f 70/97/99 56/75/92 67/88/91
f 66/87/90 60/79/82 71/98/100
f 71/98/100 68/95/97 66/87/90
f 56/94/101 70/99/102 71/100/103
f 71/100/104 60/91/105 56/94/106
f 58/101/107 64/93/95 59/92/108
f 59/92/108 61/102/109 58/101/107
f 61/102/109 65/103/110 57/104/111
f 57/104/111 58/101/107 61/102/109
f 55/105/112 54/106/113 57/104/111
f 62/107/114 55/105/112 57/104/111
f 62/107/114 57/104/111 65/103/110
f 68/108/115 71/100/103 70/99/102
f 70/99/102 69/109/115 68/108/115
f 6/6/6 8/9/9 1/1/1
f 63/82/85 62/81/116 65/84/89
f 54/73/117 53/72/74 57/76/78
f 43/89/118 56/75/119 45/69/69
f 47/90/50 60/79/82 66/87/90
f 66/87/90 39/86/40 47/90/50
f 36/68/37 50/67/68 60/79/82
l 72 73
