# Blender v2.93.0 OBJ File: ''
# www.blender.org
mtllib piernaIzq.mtl
o rdmobj00
v -0.033951 -0.029600 -0.084891
v -0.062323 -0.031935 -0.014171
v -0.069334 0.004160 -0.015093
v -0.061077 -0.028761 0.035357
v -0.069193 0.010674 0.035053
v -0.030852 -0.232941 0.023777
v -0.015998 -0.357436 0.019773
v 0.004982 -0.355203 0.035772
v 0.014074 -0.230774 0.035336
v 0.017030 -0.361009 -0.017602
v 0.004526 -0.360939 -0.020345
v -0.009387 -0.229000 -0.053118
v 0.017684 -0.229407 -0.052322
v 0.047255 -0.230957 -0.020399
v 0.030423 -0.359420 0.002025
v 0.045389 -0.231047 0.007358
v 0.026593 -0.357415 0.020038
v -0.012888 -0.359263 0.002326
v -0.033343 -0.232600 -0.013229
v 0.019181 -0.177426 0.044523
v 0.052151 -0.175424 0.015375
v 0.023353 -0.182714 -0.041795
v -0.009941 -0.183611 -0.042053
v 0.053834 -0.181401 -0.010637
v -0.034629 -0.180752 0.027050
v -0.036568 -0.185461 -0.005314
v 0.023706 -0.156168 -0.042895
v -0.012194 -0.156603 -0.043066
v 0.054947 -0.162882 -0.007177
v -0.038105 -0.167778 -0.002042
v 0.026095 0.021636 0.075639
v 0.020397 -0.010916 -0.093090
v 0.086938 0.022898 -0.029663
v 0.089615 0.031178 0.021047
v -0.000007 -0.378718 0.052585
v 0.002660 -0.324413 0.074671
v -0.041509 -0.334751 0.037861
v -0.028635 -0.379177 0.031956
v -0.003534 -0.378902 -0.026143
v 0.004944 -0.341397 -0.051891
v 0.031646 -0.338687 -0.046106
v 0.013400 -0.378957 -0.023438
v 0.060756 -0.331246 -0.002983
v 0.033472 -0.378827 0.002494
v 0.051522 -0.326320 0.038545
v 0.029364 -0.378760 0.028775
v -0.025811 -0.379233 0.007983
v -0.033308 -0.340434 0.000321
v -0.035096 -0.414779 0.080176
v 0.009109 -0.387737 0.091872
v 0.047667 -0.413785 0.072512
v 0.009242 -0.400059 0.119862
v 0.010268 -0.432611 0.154665
v 0.024501 -0.432613 0.149617
v 0.043074 -0.419497 0.114459
v 0.041087 -0.413155 0.016601
v 0.042212 -0.432510 0.111363
v 0.048613 -0.432510 0.063236
v -0.032662 -0.432401 0.036953
v -0.036364 -0.432510 0.078774
v -0.031439 -0.413545 0.028789
v -0.007163 -0.432626 0.150303
v -0.028260 -0.421201 0.115773
v 0.042719 -0.432398 0.024693
v -0.027646 -0.432510 0.112889
v 0.011535 -0.413650 -0.034885
v -0.008926 -0.413584 -0.035180
v 0.011883 -0.432510 -0.036337
v -0.009453 -0.432510 -0.036512
v 0.042413 -0.432510 0.005777
v -0.033269 -0.432510 0.016795
v -0.178808 1.204950 0.327209
v -0.178585 1.209140 0.327440
vt 0.843627 0.633910
vt 0.875435 0.590849
vt 0.890830 0.600528
vt 0.593830 0.595268
vt 0.605517 0.587950
vt 0.622945 0.617126
vt 0.601279 0.630719
vt 0.678634 0.520044
vt 0.709967 0.456740
vt 0.722122 0.463725
vt 0.705486 0.531622
vt 0.753315 0.460315
vt 0.760490 0.456997
vt 0.791026 0.528012
vt 0.780557 0.531940
vt 0.755385 0.535893
vt 0.741601 0.464369
vt 0.734861 0.536129
vt 0.731951 0.465223
vt 0.779837 0.445181
vt 0.814048 0.510869
vt 0.699179 0.450033
vt 0.654828 0.507623
vt 0.699368 0.562355
vt 0.729549 0.566860
vt 0.782909 0.558256
vt 0.802563 0.550584
vt 0.750245 0.563731
vt 0.667488 0.547177
vt 0.832715 0.531241
vt 0.648460 0.533214
vt 0.786464 0.572448
vt 0.808087 0.564183
vt 0.748224 0.573655
vt 0.839045 0.538518
vt 0.646461 0.541775
vt 0.665270 0.673609
vt 0.818801 0.656334
vt 0.756028 0.678886
vt 0.718761 0.683340
vt 0.723880 0.828505
vt 0.734342 0.868962
vt 0.702566 0.872913
vt 0.685492 0.845334
vt 0.864163 0.850074
vt 0.850093 0.881252
vt 0.834827 0.876771
vt 0.846871 0.842744
vt 0.804132 0.872380
vt 0.804161 0.831645
vt 0.769837 0.869467
vt 0.773522 0.827197
vt 0.906288 0.864517
vt 0.894850 0.893031
vt 0.674941 0.888911
vt 0.664126 0.860210
vt 0.849510 0.912188
vt 0.834405 0.912821
vt 0.801595 0.910168
vt 0.779288 0.909409
vt 0.742148 0.909647
vt 0.704476 0.912409
vt 0.881809 0.919384
vt 0.686535 0.918607
vt 0.497229 0.128943
vt 0.477294 0.150829
vt 0.445767 0.099273
vt 0.499486 0.085406
vt 0.519802 0.151383
vt 0.543675 0.098764
vt 0.494400 0.054265
vt 0.477917 0.009984
vt 0.494331 0.014299
vt 0.525358 0.052412
vt 0.555199 0.163768
vt 0.534509 0.045005
vt 0.566366 0.096232
vt 0.431124 0.151740
vt 0.430701 0.100465
vt 0.450176 0.158954
vt 0.462293 0.017683
vt 0.452406 0.058498
vt 0.577316 0.143462
vt 0.440887 0.059926
vt 0.505526 0.195968
vt 0.510217 0.221129
vt 0.491819 0.221137
vt 0.495685 0.197835
vt 0.518644 0.175659
vt 0.479090 0.171432
vt 0.537866 0.354148
vt 0.486706 0.359567
vt 0.483667 0.347823
vt 0.536910 0.342688
vt 0.516495 0.236145
vt 0.491923 0.237259
vt 0.569340 0.181695
vt 0.435877 0.183378
vt 0.540599 0.366732
vt 0.487576 0.372210
vt 0.481563 0.324111
vt 0.541732 0.317462
vt 0.488665 0.295040
vt 0.537534 0.296464
vt 0.525316 0.273037
vt 0.503164 0.272384
vt 0.513385 0.269796
vt 0.522831 0.398896
vt 0.507960 0.398458
vn -0.5853 -0.3334 -0.7391
vn -0.9739 -0.1871 -0.1283
vn -0.7862 -0.5975 -0.1580
vn -0.8705 -0.1768 0.4594
vn -0.2451 -0.8151 0.5249
vn -0.8724 -0.0989 0.4787
vn -0.9211 -0.1215 0.3698
vn -0.1010 -0.0445 0.9939
vn 0.2095 -0.0837 0.9742
vn 0.4777 -0.2300 -0.8479
vn -0.5464 -0.2449 -0.8009
vn -0.2786 -0.0237 -0.9601
vn 0.4857 -0.0247 -0.8738
vn 0.9444 -0.1344 -0.3000
vn 0.9835 -0.1565 -0.0905
vn 0.8788 -0.1371 0.4570
vn 0.7793 -0.0654 0.6232
vn -0.9577 -0.1608 -0.2387
vn -0.9275 -0.0864 -0.3637
vn 0.3133 -0.1787 0.9327
vn 0.9117 -0.1533 0.3811
vn 0.4023 0.0970 -0.9103
vn -0.5349 0.0425 -0.8438
vn 0.9089 -0.0065 -0.4169
vn -0.7812 -0.1491 0.6062
vn -0.9783 -0.0372 -0.2039
vn 0.2645 -0.1759 -0.9482
vn -0.4471 -0.2140 -0.8685
vn 0.9072 -0.1229 -0.4023
vn -0.9277 -0.1467 -0.3434
vn 0.1202 -0.2252 0.9669
vn 0.4422 -0.2809 -0.8518
vn 0.9141 -0.1613 -0.3719
vn 0.9329 -0.1312 0.3353
vn -0.4216 0.1889 0.8869
vn 0.2234 -0.3890 0.8938
vn -0.7937 -0.3059 0.5258
vn -0.9847 0.0438 0.1685
vn -0.2869 -0.2083 -0.9350
vn -0.5391 -0.4048 -0.7386
vn 0.3848 -0.5897 -0.7100
vn 0.4981 -0.1691 -0.8505
vn 0.8133 -0.5269 -0.2469
vn 0.9618 -0.1743 -0.2110
vn 0.8067 -0.4348 0.4003
vn 0.9162 0.0467 0.3979
vn 0.2234 -0.3889 0.8938
vn -0.2152 -0.3503 0.9116
vn -0.9227 -0.0606 -0.3808
vn -0.9241 -0.2482 -0.2907
vn 0.2435 0.8204 0.5174
vn 0.2717 0.8165 0.5094
vn -0.3923 0.8089 0.4380
vn -0.4133 0.8077 0.4205
vn -0.6728 0.7366 0.0690
vn -0.6701 0.7409 0.0455
vn -0.5509 0.7190 -0.4237
vn -0.5647 0.7066 -0.4265
vn 0.0949 0.7952 -0.5988
vn -0.1644 0.7638 -0.6242
vn 0.5332 0.8056 -0.2583
vn 0.5297 0.8025 -0.2747
vn 0.6534 0.7195 0.2356
vn 0.6467 0.7262 0.2333
vn -0.5114 0.5224 0.6824
vn -0.9172 0.3554 0.1803
vn -0.0345 0.9405 0.3381
vn 0.7477 0.6469 0.1498
vn -0.2785 0.8913 0.3579
vn 0.9245 0.3706 0.0889
vn 0.8850 0.2261 0.4070
vn 0.1212 0.8448 0.5212
vn 0.0330 0.7304 0.6822
vn 0.6229 0.4846 0.6141
vn 0.8526 0.3836 0.3548
vn 0.9544 0.2030 -0.2188
vn 0.9721 -0.0884 0.2171
vn 0.9985 0.0549 -0.0090
vn 0.4773 -0.8724 0.1053
vn -0.8887 -0.1133 -0.4442
vn -0.9946 0.0647 0.0809
vn -0.8817 -0.0558 -0.4686
vn -0.5811 0.4925 0.6480
vn -0.7779 0.4757 0.4105
vn 0.9879 0.0795 -0.1332
vn 0.9948 0.0912 -0.0455
vn -0.7626 -0.6004 0.2407
vn -0.9508 -0.0726 0.3012
vn 0.6175 0.1712 -0.7677
vn -0.5142 0.1897 -0.8364
vn 0.9080 0.1186 -0.4019
vn -0.8817 -0.0558 -0.4685
vn 0.6329 -0.0350 -0.7734
vn -0.1166 -0.6941 -0.7104
vn -0.6481 -0.6885 -0.3255
vn 0.3057 0.0761 -0.9491
vn -0.5394 0.0741 -0.8388
vn 0.8225 0.1925 -0.5353
vn -0.9147 0.1725 -0.3656
vn 0.7636 -0.2449 0.5975
vn 0.1424 -0.5388 0.8303
vn 0.1015 -0.7606 0.6412
vn 0.1015 -0.7607 0.6412
vn 0.0481 -0.9425 0.3308
vn 0.5222 -0.3188 0.7910
vn -0.0002 -1.0000 -0.0016
vn -0.0002 -1.0000 -0.0012
vn -0.0582 -0.9319 -0.3581
vn 0.3371 -0.9372 0.0899
vn -0.6171 -0.7571 0.2142
vn -0.3630 -0.9108 0.1968
vn 0.5887 -0.7617 0.2705
vn 0.0001 -1.0000 -0.0023
vn 0.0000 -1.0000 0.0000
vn -0.6352 -0.3109 0.7070
vn 0.7080 0.1131 0.6970
vn 0.9618 -0.1742 -0.2110
vn 0.9909 -0.0095 0.1343
vn -0.6602 -0.7231 -0.2032
usemtl johnny
s 1
f 1/1/1 2/2/2 3/3/3
f 3/4/3 2/5/2 4/6/4
f 4/6/4 5/7/5 3/4/3
f 6/8/6 7/9/7 8/10/8
f 8/10/8 9/11/9 6/8/6
f 10/12/10 11/13/11 12/14/12
f 12/14/12 13/15/13 10/12/10
f 14/16/14 15/17/15 10/12/10
f 10/12/10 13/15/13 14/16/14
f 16/18/16 17/19/17 15/17/15
f 15/17/15 14/16/14 16/18/16
f 9/11/9 8/10/8 17/19/17
f 17/19/17 16/18/16 9/11/9
f 11/13/11 18/20/18 19/21/19
f 19/21/19 12/14/12 11/13/11
f 18/22/18 7/9/7 6/8/6
f 6/8/6 19/23/19 18/22/18
f 20/24/20 9/11/9 16/18/16
f 16/18/16 21/25/21 20/24/20
f 22/26/22 13/15/13 12/14/12
f 12/14/12 23/27/23 22/26/22
f 24/28/24 14/16/14 13/15/13
f 13/15/13 22/26/22 24/28/24
f 21/25/21 16/18/16 14/16/14
f 14/16/14 24/28/24 21/25/21
f 25/29/25 6/8/6 9/11/9
f 9/11/9 20/24/20 25/29/25
f 23/27/23 12/14/12 19/21/19
f 19/21/19 26/30/26 23/27/23
f 26/31/26 19/23/19 6/8/6
f 6/8/6 25/29/25 26/31/26
f 27/32/27 22/26/22 23/27/23
f 23/27/23 28/33/28 27/32/27
f 29/34/29 24/28/24 22/26/22
f 22/26/22 27/32/27 29/34/29
f 21/25/21 24/28/24 29/34/29
f 23/27/23 26/30/26 30/35/30
f 30/35/30 28/33/28 23/27/23
f 30/36/30 26/31/26 25/29/25
f 25/29/25 20/24/20 31/37/31
f 31/37/31 4/6/4 25/29/25
f 27/32/27 28/33/28 1/1/1
f 1/1/1 32/38/32 27/32/27
f 29/34/29 27/32/27 32/38/32
f 32/38/32 33/39/33 29/34/29
f 34/40/34 21/25/21 29/34/29
f 29/34/29 33/39/33 34/40/34
f 31/37/31 20/24/20 21/25/21
f 21/25/21 34/40/34 31/37/31
f 1/1/1 28/33/28 30/35/30
f 30/35/30 2/2/2 1/1/1
f 2/5/2 30/36/30 25/29/25
f 25/29/25 4/6/4 2/5/2
f 35/41/35 36/42/36 37/43/37
f 37/43/37 38/44/38 35/41/35
f 39/45/39 40/46/40 41/47/41
f 41/47/41 42/48/42 39/45/39
f 42/48/42 41/47/41 43/49/43
f 43/49/43 44/50/44 42/48/42
f 44/50/44 43/49/43 45/51/45
f 45/51/45 46/52/46 44/50/44
f 46/52/46 45/51/45 36/42/47
f 36/42/47 35/41/48 46/52/46
f 47/53/49 48/54/50 40/46/40
f 40/46/40 39/45/39 47/53/49
f 38/44/38 37/43/37 48/55/50
f 48/55/50 47/56/49 38/44/38
f 40/46/51 11/57/52 10/58/53
f 10/58/53 41/47/54 40/46/51
f 10/58/53 15/59/55 43/49/56
f 43/49/56 41/47/54 10/58/53
f 43/49/56 15/59/55 17/60/57
f 17/60/57 45/51/58 43/49/56
f 17/60/57 8/61/59 36/42/60
f 36/42/60 45/51/58 17/60/57
f 8/61/59 7/62/61 37/43/62
f 37/43/62 36/42/60 8/61/59
f 18/63/63 11/57/52 40/46/51
f 40/46/51 48/54/64 18/63/63
f 37/43/62 7/62/61 18/64/63
f 18/64/63 48/55/64 37/43/62
f 35/65/65 38/66/38 49/67/66
f 49/67/66 50/68/67 35/65/65
f 46/69/68 35/65/69 50/68/67
f 50/68/67 51/70/70 46/69/71
f 52/71/72 53/72/73 54/73/74
f 54/73/74 55/74/75 52/71/72
f 46/69/71 51/70/70 56/75/76
f 57/76/77 58/77/78 51/70/70
f 51/70/70 55/74/75 57/76/79
f 59/78/80 60/79/81 49/67/66
f 49/67/66 61/80/82 59/78/80
f 62/81/83 53/72/73 52/71/72
f 52/71/72 63/82/84 62/81/83
f 63/82/84 52/71/72 50/68/67
f 50/68/67 49/67/66 63/82/84
f 52/71/72 55/74/75 51/70/70
f 51/70/70 50/68/67 52/71/72
f 64/83/85 56/75/86 51/70/70
f 51/70/70 58/77/78 64/83/85
f 65/84/87 63/82/84 49/67/66
f 49/67/66 60/79/81 65/84/88
f 42/85/42 66/86/89 67/87/90
f 67/87/90 39/88/39 42/85/42
f 44/89/44 56/75/91 66/86/89
f 66/86/89 42/85/42 44/89/44
f 38/66/38 47/90/49 61/80/82
f 61/91/92 56/92/93 64/93/94
f 64/93/94 59/94/95 61/91/92
f 67/87/90 66/86/89 68/95/96
f 68/95/96 69/96/97 67/87/90
f 66/86/89 56/75/91 70/97/98
f 70/97/98 68/95/96 66/86/89
f 67/87/90 69/96/97 71/98/99
f 71/98/99 61/80/82 67/87/90
f 56/92/100 61/91/101 71/99/102
f 71/99/103 70/100/104 56/92/105
f 58/101/106 60/102/107 59/94/108
f 59/94/108 64/93/94 58/101/106
f 60/102/107 58/101/106 57/103/109
f 57/103/109 65/104/110 60/102/107
f 62/105/111 65/104/110 57/103/109
f 57/103/109 54/106/112 53/107/113
f 62/105/111 57/103/109 53/107/113
f 69/108/114 68/109/114 70/100/104
f 70/100/104 71/99/103 69/108/114
f 5/7/5 4/6/4 31/37/31
f 63/82/84 65/84/87 62/81/115
f 54/73/116 57/76/79 55/74/75
f 44/89/117 46/69/71 56/75/118
f 47/90/49 39/88/39 67/87/90
f 67/87/90 61/80/82 47/90/49
f 38/66/38 61/80/82 49/67/66
f 5/7/5 31/37/31 34/40/34 33/39/33 32/38/32 1/1/1 3/4/119
l 72 73
